<?xml version="1.0" encoding="UTF-8" standalone="no"?>
<svg width="32" height="32" viewBox="0 0 32 32" fill="none" xmlns="http://www.w3.org/2000/svg">
  <!-- Градиенты и эффекты -->
  <defs>
    <linearGradient id="bgGradient" x1="0%" y1="0%" x2="100%" y2="100%">
      <stop offset="0%" stop-color="#f8faff" />
      <stop offset="100%" stop-color="#eef2ff" />
    </linearGradient>
    <linearGradient id="stateGradient" x1="30%" y1="30%" x2="70%" y2="70%">
      <stop offset="0%" stop-color="#6366f1" />
      <stop offset="100%" stop-color="#4338ca" />
    </linearGradient>
    <filter id="lightShadow">
      <feDropShadow dx="0" dy="0.4" stdDeviation="0.4" flood-opacity="0.1" />
    </filter>
    <linearGradient id="pathGradient" x1="0%" y1="0%" x2="100%" y2="0%">
      <stop offset="0%" stop-color="#a5b4fc" />
      <stop offset="100%" stop-color="#818cf8" />
    </linearGradient>
  </defs>
  
  <!-- Фон -->
  <rect width="32" height="32" rx="8" fill="url(#bgGradient)" />
  
  <!-- Соединительные линии -->
  <g>
    <path d="M11.7 9.3 A8 8 0 0 1 20.3 9.3" stroke="url(#pathGradient)" stroke-width="1" stroke-linecap="round" fill="none" />
    <path d="M22.7 11.7 A8 8 0 0 1 22.7 20.3" stroke="url(#pathGradient)" stroke-width="1" stroke-linecap="round" fill="none" />
    <path d="M20.3 22.7 A8 8 0 0 1 11.7 22.7" stroke="url(#pathGradient)" stroke-width="1" stroke-linecap="round" fill="none" />
    <path d="M9.3 20.3 A8 8 0 0 1 9.3 11.7" stroke="url(#pathGradient)" stroke-width="1" stroke-linecap="round" fill="none" />
    
    <!-- От центра к состояниям -->
    <path d="M13.3 13.3 L10.9 10.9" stroke="url(#pathGradient)" stroke-width="1" stroke-linecap="round" />
    <path d="M18.7 13.3 L21.1 10.9" stroke="url(#pathGradient)" stroke-width="1" stroke-linecap="round" />
    <path d="M18.7 18.7 L21.1 21.1" stroke="url(#pathGradient)" stroke-width="1" stroke-linecap="round" />
    <path d="M13.3 18.7 L10.9 21.1" stroke="url(#pathGradient)" stroke-width="1" stroke-linecap="round" />
  </g>
  
  <!-- Состояния -->
  <g>
    <!-- Центральное состояние -->
    <circle cx="16" cy="16" r="3.2" fill="url(#stateGradient)" filter="url(#lightShadow)" />
    <circle cx="16" cy="16" r="1.5" fill="none" stroke="white" stroke-width="0.5" stroke-opacity="0.3" />
    <circle cx="16" cy="16" r="0.8" fill="white" fill-opacity="0.5" />
    
    <!-- Угловые состояния -->
    <circle cx="9.3" cy="9.3" r="2.2" fill="url(#stateGradient)" filter="url(#lightShadow)" />
    <circle cx="22.7" cy="9.3" r="2.2" fill="url(#stateGradient)" filter="url(#lightShadow)" />
    <circle cx="22.7" cy="22.7" r="2.2" fill="url(#stateGradient)" filter="url(#lightShadow)" />
    <circle cx="9.3" cy="22.7" r="2.2" fill="url(#stateGradient)" filter="url(#lightShadow)" />
  </g>
  
  <!-- Индикаторы направления -->
  <circle cx="16" cy="9.3" r="0.6" fill="#a5b4fc" />
  <circle cx="22.7" cy="16" r="0.6" fill="#a5b4fc" />
  <circle cx="16" cy="22.7" r="0.6" fill="#a5b4fc" />
  <circle cx="9.3" cy="16" r="0.6" fill="#a5b4fc" />
</svg> 